<svg xmlns="http://www.w3.org/2000/svg" viewBox="0 0 512 512" role="img" aria-labelledby="title desc">
  <title id="title">GraphCLI Logo</title>
  <desc id="desc">A terminal-like mark with three connected graph nodes and the letters G and C.</desc>
  <defs>
    <linearGradient id="bg" x1="0%" y1="0%" x2="100%" y2="100%">
      <stop offset="0%" stop-color="#0f172a"/>
      <stop offset="100%" stop-color="#111827"/>
    </linearGradient>
    <linearGradient id="accent" x1="0%" y1="0%" x2="100%" y2="100%">
      <stop offset="0%" stop-color="#22d3ee"/>
      <stop offset="100%" stop-color="#60a5fa"/>
    </linearGradient>
  </defs>
  <rect x="24" y="24" width="464" height="464" rx="96" fill="url(#bg)"/>
  <rect x="68" y="88" width="376" height="256" rx="40" fill="#0b1220" stroke="#1f2a44" stroke-width="8"/>
  <path d="M106 154h92M106 198h64" stroke="#94a3b8" stroke-width="18" stroke-linecap="round"/>
  <circle cx="156" cy="154" r="18" fill="url(#accent)"/>
  <circle cx="264" cy="140" r="18" fill="#34d399"/>
  <circle cx="364" cy="204" r="18" fill="#f59e0b"/>
  <path d="M156 154L264 140L364 204" fill="none" stroke="url(#accent)" stroke-width="14" stroke-linecap="round" stroke-linejoin="round"/>
  <path d="M116 280l64-64 64 64M244 280l56-56 56 56" fill="none" stroke="#e5e7eb" stroke-width="18" stroke-linecap="round" stroke-linejoin="round"/>
  <circle cx="132" cy="265" r="11" fill="#e5e7eb"/>
  <circle cx="196" cy="201" r="11" fill="#e5e7eb"/>
  <circle cx="260" cy="265" r="11" fill="#e5e7eb"/>
  <circle cx="276" cy="224" r="11" fill="#e5e7eb"/>
  <circle cx="332" cy="168" r="11" fill="#e5e7eb"/>
  <circle cx="388" cy="224" r="11" fill="#e5e7eb"/>
  <path d="M100 388h312" stroke="#1f2a44" stroke-width="10" stroke-linecap="round"/>
  <text x="106" y="418" fill="#e5e7eb" font-family="ui-sans-serif, system-ui, -apple-system, BlinkMacSystemFont, Segoe UI, sans-serif" font-size="56" font-weight="700" letter-spacing="2">GRAPHCLI</text>
</svg>
